<mxfile host="app.diagrams.net" modified="2023-03-02T11:39:42.490Z" agent="5.0 (Windows NT 10.0; Win64; x64) AppleWebKit/537.36 (KHTML, like Gecko) Chrome/110.0.0.0 Safari/537.36" etag="8E3mc7d-dM1Zm_WCl5dg" version="20.8.23" type="github">
  <diagram name="Strona-1" id="N2o9sDRhOVRG4yys8NiW">
    <mxGraphModel dx="1434" dy="796" grid="1" gridSize="10" guides="1" tooltips="1" connect="1" arrows="1" fold="1" page="1" pageScale="1" pageWidth="827" pageHeight="1169" math="0" shadow="0">
      <root>
        <mxCell id="0" />
        <mxCell id="1" parent="0" />
        <mxCell id="E7xoceRB0Ow2088OI2t0-4" style="edgeStyle=orthogonalEdgeStyle;rounded=0;orthogonalLoop=1;jettySize=auto;html=1;fontSize=24;" edge="1" parent="1" source="E7xoceRB0Ow2088OI2t0-1" target="E7xoceRB0Ow2088OI2t0-3">
          <mxGeometry relative="1" as="geometry" />
        </mxCell>
        <mxCell id="E7xoceRB0Ow2088OI2t0-1" value="Start" style="ellipse;whiteSpace=wrap;html=1;fontSize=24;" vertex="1" parent="1">
          <mxGeometry x="354" y="30" width="120" height="80" as="geometry" />
        </mxCell>
        <mxCell id="E7xoceRB0Ow2088OI2t0-2" value="Stop" style="ellipse;whiteSpace=wrap;html=1;fontSize=24;" vertex="1" parent="1">
          <mxGeometry x="354" y="700" width="120" height="80" as="geometry" />
        </mxCell>
        <mxCell id="E7xoceRB0Ow2088OI2t0-3" value="Pobierz a&amp;nbsp;&lt;br&gt;" style="rounded=0;whiteSpace=wrap;html=1;fontSize=24;" vertex="1" parent="1">
          <mxGeometry x="354" y="160" width="120" height="60" as="geometry" />
        </mxCell>
      </root>
    </mxGraphModel>
  </diagram>
</mxfile>
